<svg width="24" height="24" viewBox="0 0 24 24" fill="none" xmlns="http://www.w3.org/2000/svg">
<path d="M13.205 5C13.435 5 13.62 5.075 13.76 5.225C13.9 5.365 13.97 5.55 13.97 5.78V14.945C13.97 15.175 13.9 15.365 13.76 15.515C13.62 15.655 13.435 15.725 13.205 15.725C12.975 15.725 12.79 15.655 12.65 15.515C12.51 15.375 12.44 15.185 12.44 14.945V10.91H6.53V14.945C6.53 15.175 6.46 15.365 6.32 15.515C6.18 15.655 5.995 15.725 5.765 15.725C5.535 15.725 5.35 15.655 5.21 15.515C5.07 15.375 5 15.185 5 14.945V5.78C5 5.55 5.07 5.365 5.21 5.225C5.35 5.075 5.535 5 5.765 5C5.995 5 6.18 5.075 6.32 5.225C6.46 5.365 6.53 5.55 6.53 5.78V9.65H12.44V5.78C12.44 5.55 12.51 5.365 12.65 5.225C12.79 5.075 12.975 5 13.205 5Z" fill="black"/>
<path d="M18.85 15.38C19.27 15.4867 19.59 15.69 19.81 15.99C20.0366 16.2833 20.15 16.65 20.15 17.09C20.15 17.6967 19.9266 18.18 19.48 18.54C19.0333 18.9 18.43 19.08 17.67 19.08C17.2366 19.08 16.82 19.0133 16.42 18.88C16.02 18.7467 15.68 18.56 15.4 18.32C15.2466 18.1867 15.17 18.03 15.17 17.85C15.17 17.7033 15.21 17.58 15.29 17.48C15.3766 17.3733 15.4766 17.32 15.59 17.32C15.6566 17.32 15.7166 17.3333 15.77 17.36C15.8233 17.38 15.8966 17.4167 15.99 17.47C16.27 17.6567 16.5366 17.8 16.79 17.9C17.0433 18 17.32 18.05 17.62 18.05C18.06 18.05 18.3866 17.9633 18.6 17.79C18.8133 17.61 18.92 17.34 18.92 16.98C18.92 16.6267 18.8066 16.3667 18.58 16.2C18.36 16.0267 18.0166 15.94 17.55 15.94H16.98C16.8266 15.94 16.7066 15.89 16.62 15.79C16.54 15.6833 16.5 15.5633 16.5 15.43C16.5 15.29 16.54 15.17 16.62 15.07C16.7066 14.97 16.8266 14.92 16.98 14.92H17.38C18.2933 14.92 18.75 14.5767 18.75 13.89C18.75 13.57 18.6533 13.3233 18.46 13.15C18.2666 12.9767 18 12.89 17.66 12.89C17.1733 12.89 16.6533 13.0833 16.1 13.47C16.0066 13.5233 15.9333 13.5633 15.88 13.59C15.8266 13.61 15.7666 13.62 15.7 13.62C15.5866 13.62 15.4866 13.57 15.4 13.47C15.32 13.3633 15.28 13.2367 15.28 13.09C15.28 12.99 15.2966 12.9067 15.33 12.84C15.37 12.7667 15.43 12.6933 15.51 12.62C15.79 12.3867 16.1233 12.2033 16.51 12.07C16.9033 11.93 17.3033 11.86 17.71 11.86C18.4033 11.86 18.9533 12.03 19.36 12.37C19.7733 12.71 19.98 13.1633 19.98 13.73C19.9733 14.1167 19.87 14.4567 19.67 14.75C19.4766 15.0367 19.2033 15.2467 18.85 15.38Z" fill="black"/>
</svg>
