<svg width="24" height="24" viewBox="0 0 24 24" fill="none" xmlns="http://www.w3.org/2000/svg">
<path d="M13.205 5C13.435 5 13.62 5.075 13.76 5.225C13.9 5.365 13.97 5.55 13.97 5.78V14.945C13.97 15.175 13.9 15.365 13.76 15.515C13.62 15.655 13.435 15.725 13.205 15.725C12.975 15.725 12.79 15.655 12.65 15.515C12.51 15.375 12.44 15.185 12.44 14.945V10.91H6.53V14.945C6.53 15.175 6.46 15.365 6.32 15.515C6.18 15.655 5.995 15.725 5.765 15.725C5.535 15.725 5.35 15.655 5.21 15.515C5.07 15.375 5 15.185 5 14.945V5.78C5 5.55 5.07 5.365 5.21 5.225C5.35 5.075 5.535 5 5.765 5C5.995 5 6.18 5.075 6.32 5.225C6.46 5.365 6.53 5.55 6.53 5.78V9.65H12.44V5.78C12.44 5.55 12.51 5.365 12.65 5.225C12.79 5.075 12.975 5 13.205 5Z" fill="black"/>
<path d="M20.02 16.62C20.22 16.62 20.37 16.6633 20.47 16.75C20.57 16.8367 20.62 16.96 20.62 17.12C20.62 17.4533 20.42 17.62 20.02 17.62H19.51V18.41C19.51 18.6167 19.45 18.7767 19.33 18.89C19.2166 19.0033 19.0666 19.06 18.88 19.06C18.6933 19.06 18.54 19.0033 18.42 18.89C18.3066 18.7767 18.25 18.6167 18.25 18.41V17.62H15.63C15.45 17.62 15.31 17.57 15.21 17.47C15.11 17.3633 15.06 17.2333 15.06 17.08C15.06 16.92 15.1133 16.7667 15.22 16.62L18.31 12.18C18.3766 12.0867 18.46 12.0167 18.56 11.97C18.66 11.9167 18.7633 11.89 18.87 11.89C19.0433 11.89 19.1933 11.9467 19.32 12.06C19.4466 12.1733 19.51 12.3333 19.51 12.54V16.62H20.02ZM16.39 16.62H18.25V13.93L16.39 16.62Z" fill="black"/>
</svg>
