<svg width="24" height="24" viewBox="0 0 24 24" fill="none" xmlns="http://www.w3.org/2000/svg">
<path d="M13.435 5C13.665 5 13.85 5.075 13.99 5.225C14.13 5.365 14.2 5.55 14.2 5.78V14.945C14.2 15.175 14.13 15.365 13.99 15.515C13.85 15.655 13.665 15.725 13.435 15.725C13.205 15.725 13.02 15.655 12.88 15.515C12.74 15.375 12.67 15.185 12.67 14.945V10.91H6.76001V14.945C6.76001 15.175 6.69001 15.365 6.55001 15.515C6.41001 15.655 6.22501 15.725 5.99501 15.725C5.76501 15.725 5.58001 15.655 5.44001 15.515C5.30001 15.375 5.23001 15.185 5.23001 14.945V5.78C5.23001 5.55 5.30001 5.365 5.44001 5.225C5.58001 5.075 5.76501 5 5.99501 5C6.22501 5 6.41001 5.075 6.55001 5.225C6.69001 5.365 6.76001 5.55 6.76001 5.78V9.65H12.67V5.78C12.67 5.55 12.74 5.365 12.88 5.225C13.02 5.075 13.205 5 13.435 5Z" fill="black"/>
<path d="M18.43 14.48C18.85 14.48 19.2233 14.5767 19.55 14.77C19.8767 14.9567 20.13 15.2233 20.31 15.57C20.4967 15.91 20.59 16.3 20.59 16.74C20.59 17.1933 20.4867 17.6 20.28 17.96C20.08 18.3133 19.8 18.59 19.44 18.79C19.0867 18.99 18.6833 19.09 18.23 19.09C17.3367 19.09 16.6467 18.79 16.16 18.19C15.68 17.5833 15.44 16.72 15.44 15.6C15.44 14.8333 15.5533 14.17 15.78 13.61C16.0067 13.0433 16.33 12.61 16.75 12.31C17.1767 12.01 17.6767 11.86 18.25 11.86C18.63 11.86 19.01 11.93 19.39 12.07C19.7767 12.2033 20.1033 12.3867 20.37 12.62C20.4567 12.6933 20.5167 12.7667 20.55 12.84C20.59 12.9067 20.61 12.99 20.61 13.09C20.61 13.2367 20.5667 13.3633 20.48 13.47C20.4 13.57 20.3033 13.62 20.19 13.62C20.1233 13.62 20.06 13.61 20 13.59C19.94 13.5633 19.8667 13.5233 19.78 13.47C19.2267 13.0833 18.7333 12.89 18.3 12.89C17.8133 12.89 17.43 13.1167 17.15 13.57C16.87 14.0167 16.7233 14.6467 16.71 15.46C16.8633 15.16 17.0933 14.9233 17.4 14.75C17.7067 14.57 18.05 14.48 18.43 14.48ZM18.16 18.07C18.5267 18.07 18.82 17.9533 19.04 17.72C19.26 17.48 19.37 17.1667 19.37 16.78C19.37 16.3933 19.26 16.0833 19.04 15.85C18.82 15.6167 18.5267 15.5 18.16 15.5C17.7867 15.5 17.4833 15.62 17.25 15.86C17.0233 16.0933 16.91 16.4 16.91 16.78C16.91 17.1667 17.0233 17.48 17.25 17.72C17.4833 17.9533 17.7867 18.07 18.16 18.07Z" fill="black"/>
</svg>
