<svg width="24" height="24" viewBox="0 0 24 24" fill="none" xmlns="http://www.w3.org/2000/svg">
<path d="M13.435 5C13.665 5 13.85 5.075 13.99 5.225C14.13 5.365 14.2 5.55 14.2 5.78V14.945C14.2 15.175 14.13 15.365 13.99 15.515C13.85 15.655 13.665 15.725 13.435 15.725C13.205 15.725 13.02 15.655 12.88 15.515C12.74 15.375 12.67 15.185 12.67 14.945V10.91H6.76001V14.945C6.76001 15.175 6.69001 15.365 6.55001 15.515C6.41001 15.655 6.22501 15.725 5.99501 15.725C5.76501 15.725 5.58001 15.655 5.44001 15.515C5.30001 15.375 5.23001 15.185 5.23001 14.945V5.78C5.23001 5.55 5.30001 5.365 5.44001 5.225C5.58001 5.075 5.76501 5 5.99501 5C6.22501 5 6.41001 5.075 6.55001 5.225C6.69001 5.365 6.76001 5.55 6.76001 5.78V9.65H12.67V5.78C12.67 5.55 12.74 5.365 12.88 5.225C13.02 5.075 13.205 5 13.435 5Z" fill="black"/>
<path d="M18.37 14.49C18.81 14.49 19.1967 14.5867 19.53 14.78C19.87 14.9667 20.1333 15.23 20.32 15.57C20.5067 15.91 20.6 16.3 20.6 16.74C20.6 17.2 20.4933 17.6067 20.28 17.96C20.0733 18.3133 19.7767 18.59 19.39 18.79C19.01 18.9833 18.57 19.08 18.07 19.08C17.6567 19.08 17.25 19.0133 16.85 18.88C16.4567 18.74 16.12 18.5533 15.84 18.32C15.6867 18.1867 15.61 18.03 15.61 17.85C15.61 17.7033 15.65 17.58 15.73 17.48C15.8167 17.3733 15.9167 17.32 16.03 17.32C16.0967 17.32 16.16 17.3333 16.22 17.36C16.28 17.38 16.35 17.4167 16.43 17.47C16.6967 17.6567 16.9567 17.8 17.21 17.9C17.4633 18 17.7333 18.05 18.02 18.05C18.46 18.05 18.7967 17.94 19.03 17.72C19.2633 17.5 19.38 17.1867 19.38 16.78C19.38 16.3867 19.26 16.0767 19.02 15.85C18.7867 15.6167 18.4633 15.5 18.05 15.5C17.79 15.5 17.5567 15.5367 17.35 15.61C17.15 15.6833 16.9433 15.8067 16.73 15.98C16.6033 16.0667 16.4733 16.11 16.34 16.11C16.2067 16.11 16.0933 16.07 16 15.99C15.9067 15.91 15.86 15.8033 15.86 15.67V12.55C15.86 12.3633 15.9133 12.2167 16.02 12.11C16.1267 12.0033 16.2767 11.95 16.47 11.95H19.8C20.2 11.95 20.4 12.1167 20.4 12.45C20.4 12.7833 20.2 12.95 19.8 12.95H17.12V14.85C17.46 14.61 17.8767 14.49 18.37 14.49Z" fill="black"/>
</svg>
