<svg width="24" height="24" viewBox="0 0 24 24" fill="none" xmlns="http://www.w3.org/2000/svg">
<path d="M13.205 5C13.435 5 13.62 5.075 13.76 5.225C13.9 5.365 13.97 5.55 13.97 5.78V14.945C13.97 15.175 13.9 15.365 13.76 15.515C13.62 15.655 13.435 15.725 13.205 15.725C12.975 15.725 12.79 15.655 12.65 15.515C12.51 15.375 12.44 15.185 12.44 14.945V10.91H6.53V14.945C6.53 15.175 6.46 15.365 6.32 15.515C6.18 15.655 5.995 15.725 5.765 15.725C5.535 15.725 5.35 15.655 5.21 15.515C5.07 15.375 5 15.185 5 14.945V5.78C5 5.55 5.07 5.365 5.21 5.225C5.35 5.075 5.535 5 5.765 5C5.995 5 6.18 5.075 6.32 5.225C6.46 5.365 6.53 5.55 6.53 5.78V9.65H12.44V5.78C12.44 5.55 12.51 5.365 12.65 5.225C12.79 5.075 12.975 5 13.205 5Z" fill="black"/>
<path d="M20.05 18.06C20.45 18.06 20.65 18.23 20.65 18.57C20.65 18.9233 20.45 19.1 20.05 19.1H16.67C16.2633 19.1 16.06 18.9233 16.06 18.57C16.06 18.23 16.2633 18.06 16.67 18.06H17.71V13.5L16.75 14.09C16.6567 14.1433 16.5733 14.17 16.5 14.17C16.36 14.17 16.24 14.11 16.14 13.99C16.0467 13.87 16 13.7367 16 13.59C16 13.3967 16.0867 13.2467 16.26 13.14L17.81 12.18C18.01 12.06 18.2 12 18.38 12C18.5667 12 18.7167 12.0567 18.83 12.17C18.9433 12.2833 19 12.44 19 12.64V18.06H20.05Z" fill="black"/>
</svg>
