<svg width="24" height="24" viewBox="0 0 24 24" fill="none" xmlns="http://www.w3.org/2000/svg">
<path d="M13.205 5C13.435 5 13.62 5.075 13.76 5.225C13.9 5.365 13.97 5.55 13.97 5.78V14.945C13.97 15.175 13.9 15.365 13.76 15.515C13.62 15.655 13.435 15.725 13.205 15.725C12.975 15.725 12.79 15.655 12.65 15.515C12.51 15.375 12.44 15.185 12.44 14.945V10.91H6.53V14.945C6.53 15.175 6.46 15.365 6.32 15.515C6.18 15.655 5.995 15.725 5.765 15.725C5.535 15.725 5.35 15.655 5.21 15.515C5.07 15.375 5 15.185 5 14.945V5.78C5 5.55 5.07 5.365 5.21 5.225C5.35 5.075 5.535 5 5.765 5C5.995 5 6.18 5.075 6.32 5.225C6.46 5.365 6.53 5.55 6.53 5.78V9.65H12.44V5.78C12.44 5.55 12.51 5.365 12.65 5.225C12.79 5.075 12.975 5 13.205 5Z" fill="black"/>
<path d="M19.75 17.61C20.15 17.61 20.35 17.78 20.35 18.12C20.35 18.4733 20.15 18.65 19.75 18.65H15.95C15.7767 18.65 15.64 18.6 15.54 18.5C15.44 18.3933 15.39 18.2633 15.39 18.11C15.39 17.91 15.4667 17.73 15.62 17.57L17.9 15.12C18.18 14.8133 18.3833 14.5333 18.51 14.28C18.6433 14.02 18.71 13.7633 18.71 13.51C18.71 13.1966 18.62 12.9566 18.44 12.79C18.26 12.6233 18.0033 12.54 17.67 12.54C17.3967 12.54 17.13 12.5933 16.87 12.7C16.6167 12.8 16.36 12.94 16.1 13.12C16.0333 13.1666 15.9667 13.2066 15.9 13.24C15.8333 13.2666 15.7667 13.28 15.7 13.28C15.5867 13.28 15.4867 13.2266 15.4 13.12C15.32 13.0133 15.28 12.8866 15.28 12.74C15.28 12.64 15.2967 12.5533 15.33 12.48C15.37 12.4066 15.43 12.3366 15.51 12.27C15.8033 12.0366 16.1467 11.8533 16.54 11.72C16.9333 11.58 17.3267 11.51 17.72 11.51C18.4067 11.51 18.9533 11.6833 19.36 12.03C19.7733 12.3766 19.98 12.8433 19.98 13.43C19.98 13.8366 19.8933 14.22 19.72 14.58C19.5467 14.9333 19.2533 15.33 18.84 15.77L17.11 17.61H19.75Z" fill="black"/>
</svg>
