<svg width="24" height="24" viewBox="0 0 24 24" fill="none" xmlns="http://www.w3.org/2000/svg">
<path d="M7.80845 19C7.55869 19 7.3615 18.9277 7.2169 18.7831C7.0723 18.6254 7 18.4216 7 18.1718V5.78873C7 5.55211 7.0723 5.3615 7.2169 5.2169C7.37465 5.0723 7.5784 5 7.82817 5H12.5014C13.9606 5 15.0911 5.35493 15.893 6.06479C16.708 6.77465 17.1155 7.78028 17.1155 9.08169C17.1155 10.3831 16.708 11.3953 15.893 12.1183C15.0779 12.8413 13.9474 13.2028 12.5014 13.2028H8.6169V18.1718C8.6169 18.4216 8.5446 18.6254 8.4 18.7831C8.2554 18.9277 8.05822 19 7.80845 19ZM12.3437 11.862C14.4601 11.862 15.5183 10.9352 15.5183 9.08169C15.5183 7.25446 14.4601 6.34085 12.3437 6.34085H8.6169V11.862H12.3437Z" fill="black"/>
</svg>
