<svg width="24" height="24" viewBox="0 0 24 24" fill="none" xmlns="http://www.w3.org/2000/svg">
<path fill-rule="evenodd" clip-rule="evenodd" d="M7.912 10.9417C7.92822 10.9613 7.94463 10.9808 7.96121 11H10.7926C10.3118 10.8317 9.92158 10.6505 9.622 10.4563C9.11533 10.1068 8.862 9.589 8.862 8.90291C8.862 8.10032 9.15333 7.47897 9.736 7.03884C10.3187 6.58576 11.1357 6.35922 12.187 6.35922C12.9343 6.35922 13.574 6.46278 14.106 6.6699C14.638 6.87702 15.2143 7.23948 15.835 7.75728C16.063 7.89968 16.2467 7.97087 16.386 7.97087C16.5253 7.97087 16.6457 7.90615 16.747 7.7767C16.8483 7.6343 16.899 7.47249 16.899 7.29126C16.899 7.04531 16.7977 6.81877 16.595 6.61165C16.0757 6.09385 15.4297 5.69903 14.657 5.42718C13.897 5.14239 13.0737 5 12.187 5C11.237 5 10.3883 5.16828 9.641 5.50485C8.90633 5.82848 8.33 6.2945 7.912 6.90291C7.50667 7.49838 7.304 8.18447 7.304 8.96117C7.304 9.7767 7.50667 10.4369 7.912 10.9417ZM12.092 19C11.142 19 10.23 18.8576 9.356 18.5728C8.49467 18.2751 7.80433 17.8803 7.285 17.3883C7.095 17.2071 7 16.9806 7 16.7087C7 16.5275 7.05067 16.3722 7.152 16.2427C7.25333 16.1003 7.37367 16.0291 7.513 16.0291C7.67767 16.0291 7.855 16.1003 8.045 16.2427C9.223 17.1748 10.5657 17.6408 12.073 17.6408C13.1623 17.6408 13.9983 17.4272 14.581 17C15.1637 16.5728 15.455 15.9644 15.455 15.1748C15.455 14.7217 15.3157 14.3592 15.037 14.0874C14.7583 13.8026 14.391 13.5761 13.935 13.4078C13.9082 13.3979 13.8808 13.3879 13.8529 13.378H4.858C4.598 13.378 4.39 13.3087 4.234 13.17C4.078 13.0487 4 12.8927 4 12.702C4 12.5113 4.078 12.3467 4.234 12.208C4.39 12.0693 4.598 12 4.858 12H19.142C19.402 12 19.61 12.0693 19.766 12.208C19.922 12.3467 20 12.5113 20 12.702C20 12.8927 19.922 13.0487 19.766 13.17C19.61 13.3087 19.402 13.378 19.142 13.378H16.4866C16.8375 13.8359 17.013 14.4219 17.013 15.1359C17.013 15.8997 16.804 16.5728 16.386 17.1553C15.9807 17.7379 15.4043 18.1909 14.657 18.5146C13.9097 18.8382 13.0547 19 12.092 19Z" fill="black"/>
</svg>
